<?xml version="1.0" encoding="UTF-8"?>
<svg xmlns="http://www.w3.org/2000/svg" xmlns:xlink="http://www.w3.org/1999/xlink" width="24px" height="24px" viewBox="0 0 24 24" version="1.1">
<g id="surface1">
<path style=" stroke:none;fill-rule:nonzero;fill:rgb(0%,0%,0%);fill-opacity:1;" d="M 8.34375 2.675781 C 7.988281 2.746094 7.585938 2.976562 7.304688 3.273438 C 7.097656 3.488281 6.957031 3.71875 6.636719 4.351562 C 6.417969 4.789062 6.171875 5.222656 6.09375 5.316406 C 5.925781 5.503906 5.527344 5.71875 5.335938 5.71875 L 5.203125 5.71875 L 5.203125 5.300781 C 5.203125 4.949219 5.1875 4.867188 5.09375 4.730469 C 4.894531 4.429688 4.796875 4.40625 3.585938 4.40625 C 2.375 4.40625 2.277344 4.429688 2.078125 4.730469 C 1.984375 4.867188 1.96875 4.949219 1.96875 5.316406 L 1.96875 5.742188 L 1.683594 5.796875 C 0.894531 5.949219 0.277344 6.53125 0.0664062 7.328125 C -0.03125 7.707031 -0.03125 19.410156 0.0703125 19.796875 C 0.167969 20.175781 0.304688 20.414062 0.578125 20.703125 C 1.03125 21.1875 1.53125 21.375 2.382812 21.375 C 2.832031 21.375 2.875 21.367188 2.976562 21.257812 C 3.125 21.113281 3.132812 20.90625 2.984375 20.78125 C 2.898438 20.695312 2.8125 20.675781 2.320312 20.664062 C 1.859375 20.648438 1.714844 20.625 1.523438 20.539062 C 1.226562 20.40625 1.011719 20.199219 0.851562 19.898438 L 0.726562 19.664062 L 0.710938 13.632812 C 0.703125 7.707031 0.703125 7.597656 0.796875 7.351562 C 0.917969 7.023438 1.105469 6.800781 1.410156 6.632812 L 1.664062 6.492188 L 3.585938 6.46875 C 5.464844 6.441406 5.511719 6.441406 5.789062 6.332031 C 6.453125 6.070312 6.710938 5.78125 7.265625 4.6875 C 7.710938 3.800781 7.84375 3.636719 8.246094 3.449219 C 8.457031 3.351562 8.515625 3.351562 11.859375 3.335938 C 14.113281 3.328125 15.335938 3.34375 15.492188 3.375 C 15.789062 3.4375 16.164062 3.695312 16.308594 3.921875 C 16.363281 4.023438 16.59375 4.445312 16.8125 4.859375 C 17.269531 5.722656 17.507812 6.007812 17.972656 6.234375 C 18.40625 6.441406 18.710938 6.46875 20.5625 6.46875 L 22.257812 6.46875 L 22.550781 6.625 C 22.738281 6.71875 22.902344 6.847656 23 6.976562 C 23.316406 7.386719 23.300781 7.035156 23.289062 13.667969 L 23.273438 19.664062 L 23.148438 19.898438 C 22.988281 20.199219 22.773438 20.40625 22.476562 20.539062 L 22.242188 20.648438 L 13.175781 20.664062 L 4.105469 20.671875 L 4 20.773438 C 3.84375 20.914062 3.851562 21.148438 4.011719 21.277344 L 4.140625 21.375 L 13.121094 21.375 C 22.984375 21.375 22.429688 21.390625 22.945312 21.09375 C 23.230469 20.929688 23.621094 20.53125 23.761719 20.257812 C 24.007812 19.777344 24 19.984375 24 13.585938 C 24 9.359375 23.984375 7.574219 23.949219 7.398438 C 23.816406 6.78125 23.382812 6.230469 22.804688 5.949219 L 22.476562 5.789062 L 20.53125 5.765625 C 18.613281 5.742188 18.582031 5.742188 18.34375 5.628906 C 17.96875 5.464844 17.769531 5.207031 17.320312 4.316406 C 17 3.6875 16.859375 3.453125 16.664062 3.253906 C 16.382812 2.96875 15.96875 2.75 15.566406 2.671875 C 15.253906 2.617188 8.648438 2.617188 8.34375 2.675781 Z M 4.5 5.4375 L 4.5 5.765625 L 2.671875 5.765625 L 2.671875 5.109375 L 4.5 5.109375 Z M 4.5 5.4375 "/>
<path style=" stroke:none;fill-rule:nonzero;fill:rgb(0%,0%,0%);fill-opacity:1;" d="M 10.023438 4.546875 C 9.910156 4.664062 9.886719 4.714844 9.910156 4.820312 C 9.929688 4.890625 9.984375 4.984375 10.039062 5.023438 C 10.125 5.105469 10.292969 5.109375 12 5.109375 C 13.707031 5.109375 13.875 5.105469 13.960938 5.023438 C 14.015625 4.984375 14.070312 4.890625 14.089844 4.820312 C 14.113281 4.714844 14.089844 4.664062 13.976562 4.546875 L 13.835938 4.40625 L 10.164062 4.40625 Z M 10.023438 4.546875 "/>
<path style=" stroke:none;fill-rule:nonzero;fill:rgb(0%,0%,0%);fill-opacity:1;" d="M 2.59375 7.363281 C 2.03125 7.460938 1.667969 7.902344 1.667969 8.484375 C 1.667969 9.136719 2.148438 9.609375 2.796875 9.609375 C 3.488281 9.605469 3.992188 9.039062 3.921875 8.351562 C 3.859375 7.707031 3.242188 7.25 2.59375 7.363281 Z M 3.117188 8.210938 C 3.265625 8.390625 3.265625 8.578125 3.113281 8.761719 C 2.878906 9.042969 2.417969 8.902344 2.363281 8.527344 C 2.339844 8.394531 2.359375 8.335938 2.457031 8.21875 C 2.652344 7.984375 2.925781 7.984375 3.117188 8.210938 Z M 3.117188 8.210938 "/>
<path style=" stroke:none;fill-rule:nonzero;fill:rgb(0%,0%,0%);fill-opacity:1;" d="M 11.554688 7.363281 C 9.125 7.53125 7.046875 9.183594 6.308594 11.523438 C 5.949219 12.671875 5.957031 14.042969 6.332031 15.160156 C 6.640625 16.078125 7.078125 16.78125 7.78125 17.488281 C 8.574219 18.289062 9.464844 18.804688 10.53125 19.085938 C 11.0625 19.226562 11.128906 19.238281 12 19.238281 C 12.875 19.238281 12.9375 19.226562 13.476562 19.085938 C 15.148438 18.640625 16.554688 17.503906 17.339844 15.957031 C 18.273438 14.09375 18.144531 11.8125 17 10.070312 C 15.792969 8.207031 13.78125 7.214844 11.554688 7.363281 Z M 12.5625 8.082031 C 13.644531 8.15625 14.796875 8.703125 15.671875 9.554688 C 16.671875 10.53125 17.1875 11.703125 17.234375 13.101562 C 17.292969 14.652344 16.796875 15.929688 15.707031 17.019531 C 13.644531 19.085938 10.328125 19.078125 8.273438 16.996094 C 7.195312 15.90625 6.707031 14.652344 6.765625 13.101562 C 6.8125 11.761719 7.285156 10.636719 8.199219 9.683594 C 8.9375 8.921875 9.722656 8.457031 10.726562 8.199219 C 11.078125 8.109375 11.859375 8.019531 12.09375 8.042969 C 12.160156 8.054688 12.371094 8.066406 12.5625 8.082031 Z M 12.5625 8.082031 "/>
<path style=" stroke:none;fill-rule:nonzero;fill:rgb(0%,0%,0%);fill-opacity:1;" d="M 11.085938 9.078125 C 9.371094 9.445312 8.015625 10.882812 7.730469 12.632812 C 7.65625 13.117188 7.703125 13.984375 7.828125 14.4375 C 8.242188 15.914062 9.441406 17.101562 10.921875 17.492188 C 11.492188 17.644531 12.507812 17.644531 13.078125 17.492188 C 14.277344 17.171875 15.328125 16.316406 15.867188 15.210938 C 16.210938 14.511719 16.285156 14.160156 16.289062 13.3125 C 16.289062 12.558594 16.257812 12.351562 16.03125 11.75 C 15.945312 11.53125 15.894531 11.460938 15.78125 11.414062 C 15.609375 11.339844 15.476562 11.382812 15.355469 11.546875 L 15.261719 11.671875 L 15.417969 12.125 C 15.542969 12.5 15.582031 12.679688 15.601562 13.105469 C 15.628906 13.808594 15.535156 14.269531 15.234375 14.882812 C 14.78125 15.804688 14.058594 16.429688 13.054688 16.765625 C 12.722656 16.875 12.605469 16.894531 12.023438 16.894531 C 11.460938 16.898438 11.320312 16.882812 11.015625 16.789062 C 10.339844 16.574219 9.84375 16.265625 9.359375 15.765625 C 8.929688 15.3125 8.628906 14.757812 8.480469 14.125 C 8.339844 13.542969 8.371094 12.75 8.550781 12.210938 C 9.070312 10.667969 10.402344 9.703125 12 9.703125 C 12.863281 9.703125 13.636719 9.976562 14.316406 10.523438 C 14.675781 10.808594 14.804688 10.835938 14.976562 10.664062 C 15.164062 10.480469 15.132812 10.328125 14.855469 10.070312 C 14.363281 9.609375 13.59375 9.21875 12.882812 9.074219 C 12.425781 8.980469 11.53125 8.980469 11.085938 9.078125 Z M 11.085938 9.078125 "/>
<path style=" stroke:none;fill-rule:nonzero;fill:rgb(0%,0%,0%);fill-opacity:1;" d="M 20.859375 7.78125 C 20.71875 7.921875 20.734375 8.171875 20.886719 8.292969 C 20.992188 8.371094 21.078125 8.390625 21.375 8.390625 C 21.671875 8.390625 21.757812 8.371094 21.863281 8.292969 C 22.023438 8.164062 22.03125 7.929688 21.875 7.789062 C 21.78125 7.703125 21.710938 7.6875 21.359375 7.6875 C 21.015625 7.6875 20.9375 7.703125 20.859375 7.78125 Z M 20.859375 7.78125 "/>
</g>
</svg>
